<svg width="30" height="30" viewBox="0 0 30 30" fill="none" xmlns="http://www.w3.org/2000/svg">
<path d="M15.3333 29.8626C11.0745 29.8626 7.45392 28.3714 4.47158 25.3891C1.49053 22.408 0 18.7881 0 14.5292C0 11.3731 0.90275 8.47511 2.70825 5.83522C4.51375 3.19533 7.07569 1.29655 10.3941 0.138886C10.7851 0.00216366 11.1275 -0.0336146 11.4214 0.0315521C11.7166 0.095441 11.96 0.222581 12.1517 0.412969C12.3433 0.603358 12.4654 0.846135 12.5177 1.1413C12.5714 1.43902 12.5318 1.75144 12.3989 2.07855C12.151 2.68805 11.9709 3.30841 11.8584 3.93964C11.7472 4.57086 11.6917 5.22572 11.6917 5.90422C11.6917 9.31972 12.8819 12.2184 15.2624 14.6001C17.6442 16.9806 20.5428 18.1709 23.9583 18.1709C24.8502 18.1709 25.6667 18.0763 26.4078 17.8872C27.1489 17.6981 27.7795 17.5448 28.2996 17.4272C28.5769 17.3761 28.8324 17.3825 29.0662 17.4464C29.2962 17.5116 29.4815 17.624 29.6221 17.7837C29.7703 17.9434 29.8706 18.1402 29.923 18.3741C29.9767 18.6066 29.9466 18.873 29.8329 19.1733C28.9193 22.3039 27.1285 24.8684 24.4605 26.8668C21.7938 28.864 18.7514 29.8626 15.3333 29.8626Z" fill="white"/>
</svg>
