<svg width="20" height="33" viewBox="0 0 20 33" fill="none" xmlns="http://www.w3.org/2000/svg">
<path d="M9.58333 0C4.28567 0 0 4.28567 0 9.58333C0 9.96458 0.15145 10.3302 0.421034 10.5998C0.690617 10.8694 1.05625 11.0208 1.4375 11.0208C1.81875 11.0208 2.18438 10.8694 2.45397 10.5998C2.72355 10.3302 2.875 9.96458 2.875 9.58333C2.875 5.87267 5.87267 2.875 9.58333 2.875C13.294 2.875 16.2917 5.87267 16.2917 9.58333C16.2917 11.2163 15.8662 12.305 15.2778 13.1483C14.6567 14.0357 13.8077 14.7257 12.7822 15.5097L12.5178 15.7109C10.5819 17.1829 8.14583 19.0344 8.14583 23V23.4792C8.14583 23.8604 8.29729 24.226 8.56687 24.4956C8.83645 24.7652 9.20208 24.9167 9.58333 24.9167C9.96458 24.9167 10.3302 24.7652 10.5998 24.4956C10.8694 24.226 11.0208 23.8604 11.0208 23.4792V23C11.0208 20.4757 12.3893 19.4292 14.4421 17.8595L14.5303 17.7924C15.5403 17.02 16.7287 16.0923 17.6353 14.7947C18.5744 13.4512 19.1667 11.7856 19.1667 9.58333C19.1667 4.28567 14.881 0 9.58333 0ZM9.58333 32.5833C10.0917 32.5833 10.5792 32.3814 10.9386 32.022C11.2981 31.6625 11.5 31.175 11.5 30.6667C11.5 30.1583 11.2981 29.6708 10.9386 29.3114C10.5792 28.9519 10.0917 28.75 9.58333 28.75C9.075 28.75 8.58749 28.9519 8.22805 29.3114C7.8686 29.6708 7.66667 30.1583 7.66667 30.6667C7.66667 31.175 7.8686 31.6625 8.22805 32.022C8.58749 32.3814 9.075 32.5833 9.58333 32.5833Z" fill="white"/>
</svg>
