<svg height="100%" viewBox="0 0 50 50" fill="none" xmlns="http://www.w3.org/2000/svg">
<path d="M25.2666 0C25.5924 1.00075e-05 25.9099 0.100812 26.1732 0.287888C26.4365 0.474964 26.6321 0.73866 26.7319 1.041L28.4249 6.168C29.136 6.507 29.8163 6.888 30.4659 7.317L35.8714 6.183C36.1901 6.11668 36.5222 6.15067 36.8198 6.28006C37.1175 6.40945 37.3653 6.62757 37.5275 6.903L41.7941 14.1C41.957 14.3753 42.026 14.6939 41.9912 15.0098C41.9563 15.3258 41.8194 15.6228 41.6002 15.858L37.8908 19.848C37.9448 20.6131 37.9448 21.3809 37.8908 22.146L41.6002 26.142C41.8194 26.3772 41.9563 26.6742 41.9912 26.9902C42.026 27.3061 41.957 27.6247 41.7941 27.9L37.5275 35.1C37.3648 35.3749 37.1168 35.5924 36.8192 35.7212C36.5216 35.8501 36.1898 35.8836 35.8714 35.817L30.4659 34.683C29.8194 35.109 29.136 35.493 28.428 35.832L26.7319 40.959C26.6321 41.2613 26.4365 41.525 26.1732 41.7121C25.9099 41.8992 25.5924 42 25.2666 42H16.7334C16.4076 42 16.0901 41.8992 15.8268 41.7121C15.5635 41.525 15.3679 41.2613 15.2682 40.959L13.5782 35.835C12.869 35.497 12.1849 35.1111 11.5311 34.68L6.1286 35.817C5.80988 35.8833 5.4778 35.8493 5.18017 35.7199C4.88254 35.5905 4.63474 35.3724 4.47246 35.097L0.205896 27.9C0.0429739 27.6247 -0.0260348 27.3061 0.00882016 26.9902C0.0436751 26.6742 0.180593 26.3772 0.39983 26.142L4.10922 22.146C4.05548 21.3829 4.05548 20.6171 4.10922 19.854L0.39983 15.858C0.180593 15.6228 0.0436751 15.3258 0.00882016 15.0098C-0.0260348 14.6939 0.0429739 14.3753 0.205896 14.1L4.47246 6.9C4.63519 6.62512 4.88318 6.40762 5.18077 6.27879C5.47836 6.14995 5.81021 6.11641 6.1286 6.183L11.5311 7.32C12.1837 6.891 12.8671 6.504 13.5782 6.165L15.2712 1.041C15.3706 0.739634 15.5653 0.476636 15.8274 0.28965C16.0895 0.102664 16.4055 0.001277 16.7304 0H25.2635H25.2666ZM24.1399 3H17.8601L16.1116 8.301L14.9326 8.862C14.353 9.13841 13.7935 9.45315 13.258 9.804L12.1683 10.524L6.57803 9.348L3.43814 14.652L7.27066 18.786L7.17831 20.058C7.13408 20.6853 7.13408 21.3147 7.17831 21.942L7.27066 23.214L3.43198 27.348L6.57496 32.652L12.1652 31.479L13.2549 32.196C13.7904 32.5469 14.3499 32.8616 14.9295 33.138L16.1085 33.699L17.8601 39H24.1461L25.9007 33.696L27.0766 33.138C27.6556 32.8622 28.2141 32.5475 28.7482 32.196L29.8348 31.479L35.4281 32.652L38.568 27.348L34.7324 23.214L34.8248 21.942C34.8691 21.3137 34.8691 20.6833 34.8248 20.055L34.7324 18.783L38.5711 14.652L35.4281 9.348L29.8348 10.518L28.7482 9.804C28.2142 9.45244 27.6556 9.13768 27.0766 8.862L25.9007 8.304L24.143 3H24.1399ZM21 12C23.4493 12 25.7982 12.9482 27.5301 14.636C29.262 16.3239 30.235 18.6131 30.235 21C30.235 23.3869 29.262 25.6761 27.5301 27.364C25.7982 29.0518 23.4493 30 21 30C18.5507 30 16.2018 29.0518 14.4699 27.364C12.738 25.6761 11.765 23.3869 11.765 21C11.765 18.6131 12.738 16.3239 14.4699 14.636C16.2018 12.9482 18.5507 12 21 12ZM21 15C19.3672 15 17.8012 15.6321 16.6466 16.7574C15.492 17.8826 14.8433 19.4087 14.8433 21C14.8433 22.5913 15.492 24.1174 16.6466 25.2426C17.8012 26.3679 19.3672 27 21 27C22.6328 27 24.1988 26.3679 25.3534 25.2426C26.508 24.1174 27.1567 22.5913 27.1567 21C27.1567 19.4087 26.508 17.8826 25.3534 16.7574C24.1988 15.6321 22.6328 15 21 15Z" fill="currentColor"/>
</svg>
