<svg width="50" height="50" viewBox="0 0 30 30" fill="none" xmlns="http://www.w3.org/2000/svg">
<path d="M7.5 25C8.875 25 10 23.875 10 22.5V13.75C10 12.375 8.875 11.25 7.5 11.25C6.125 11.25 5 12.375 5 13.75V22.5C5 23.875 6.125 25 7.5 25ZM20 18.75V22.5C20 23.875 21.125 25 22.5 25C23.875 25 25 23.875 25 22.5V18.75C25 17.375 23.875 16.25 22.5 16.25C21.125 16.25 20 17.375 20 18.75ZM15 25C16.375 25 17.5 23.875 17.5 22.5V7.5C17.5 6.125 16.375 5 15 5C13.625 5 12.5 6.125 12.5 7.5V22.5C12.5 23.875 13.625 25 15 25Z" fill="white"/>
</svg>
